HIERARCHY
ROOT hip
{
  OFFSET 0 0 0
  CHANNELS 6 Xposition Yposition Zposition Zrotation Yrotation Xrotation
  JOINT abdomen
  {
    OFFSET 0 20.6881 -0.73152
    CHANNELS 3 Zrotation Xrotation Yrotation
    JOINT chest
    {
      OFFSET 0 11.7043 -0.48768
      CHANNELS 3 Zrotation Xrotation Yrotation
      JOINT neck
      {
        OFFSET 0 22.1894 -2.19456
        CHANNELS 3 Zrotation Xrotation Yrotation
        JOINT head
        {
          OFFSET -0.24384 7.07133 1.2192
          CHANNELS 3 Zrotation Xrotation Yrotation
          JOINT leftEye
          {
            OFFSET 4.14528 8.04674 8.04672
            CHANNELS 3 Zrotation Xrotation Yrotation
            End Site
            {
              OFFSET 1 0 0
            }
          }
          JOINT rightEye
          {
            OFFSET -3.6576 8.04674 8.04672
            CHANNELS 3 Zrotation Xrotation Yrotation
            End Site
            {
              OFFSET 1 0 0
            }
          }
        }
      }
      JOINT rCollar
      {
        OFFSET -2.68224 19.2634 -4.8768
        CHANNELS 3 Zrotation Xrotation Yrotation
        JOINT rShldr
        {
          OFFSET -8.77824 -1.95073 1.46304
          CHANNELS 3 Zrotation Xrotation Yrotation
          JOINT rForeArm
          {
            OFFSET -28.1742 -1.7115 0.48768
            CHANNELS 3 Zrotation Xrotation Yrotation
            JOINT rHand
            {
              OFFSET -22.5879 0.773209 7.07136
              CHANNELS 3 Zrotation Xrotation Yrotation
              JOINT rThumb1
              {
                OFFSET -1.2192 -0.487915 3.41376
                CHANNELS 3 Zrotation Xrotation Yrotation
                JOINT rThumb2
                {
                  OFFSET -3.37035 -0.52449 3.41376
                  CHANNELS 3 Zrotation Xrotation Yrotation
                  End Site
                  {
                    OFFSET -1.78271 -1.18214 1.43049
                  }
                }
              }
              JOINT rIndex1
              {
                OFFSET -7.75947 0.938293 5.60832
                CHANNELS 3 Zrotation Xrotation Yrotation
                JOINT rIndex2
                {
                  OFFSET -2.54057 -0.884171 1.56538
                  CHANNELS 3 Zrotation Xrotation Yrotation
                  End Site
                  {
                    OFFSET -1.62519 -0.234802 1.16502
                  }
                }
              }
              JOINT rMid1
              {
                OFFSET -8.24714 1.18213 3.41376
                CHANNELS 3 Zrotation Xrotation Yrotation
                JOINT rMid2
                {
                  OFFSET -3.10165 -0.590103 1.0647
                  CHANNELS 3 Zrotation Xrotation Yrotation
                  End Site
                  {
                    OFFSET -2.48547 -0.328903 0.83742
                  }
                }
              }
              JOINT rRing1
              {
                OFFSET -8.82822 0.546677 1.51678
                CHANNELS 3 Zrotation Xrotation Yrotation
                JOINT rRing2
                {
                  OFFSET -2.60934 -0.819778 -0.0198488
                  CHANNELS 3 Zrotation Xrotation Yrotation
                  End Site
                  {
                    OFFSET -2.33842 -0.294052 0.168128
                  }
                }
              }
              JOINT rPinky1
              {
                OFFSET -8.27202 -0.0477905 -0.4584
                CHANNELS 3 Zrotation Xrotation Yrotation
                JOINT rPinky2
                {
                  OFFSET -1.82734 -0.647385 -0.700984
                  CHANNELS 3 Zrotation Xrotation Yrotation
                  End Site
                  {
                    OFFSET -1.69225 -0.51767 -0.607171
                  }
                }
              }
            }
          }
        }
      }
      JOINT lCollar
      {
        OFFSET 2.68224 19.2634 -4.8768
        CHANNELS 3 Zrotation Xrotation Yrotation
        JOINT lShldr
        {
          OFFSET 8.77824 -1.95073 1.46304
          CHANNELS 3 Zrotation Xrotation Yrotation
          JOINT lForeArm
          {
            OFFSET 28.1742 -1.7115 0.48768
            CHANNELS 3 Zrotation Xrotation Yrotation
            JOINT lHand
            {
              OFFSET 22.5879 0.773209 7.07136
              CHANNELS 3 Zrotation Xrotation Yrotation
              JOINT lThumb1
              {
                OFFSET 1.2192 -0.487915 3.41376
                CHANNELS 3 Zrotation Xrotation Yrotation
                JOINT lThumb2
                {
                  OFFSET 3.37035 -0.52449 3.41376
                  CHANNELS 3 Zrotation Xrotation Yrotation
                  End Site
                  {
                    OFFSET 1.78271 -1.18214 1.43049
                  }
                }
              }
              JOINT lIndex1
              {
                OFFSET 7.75947 0.938293 5.60832
                CHANNELS 3 Zrotation Xrotation Yrotation
                JOINT lIndex2
                {
                  OFFSET 2.54057 -0.884171 1.56538
                  CHANNELS 3 Zrotation Xrotation Yrotation
                  End Site
                  {
                    OFFSET 1.62519 -0.234802 1.16502
                  }
                }
              }
              JOINT lMid1
              {
                OFFSET 8.24714 1.18213 3.41376
                CHANNELS 3 Zrotation Xrotation Yrotation
                JOINT lMid2
                {
                  OFFSET 3.10165 -0.590103 1.0647
                  CHANNELS 3 Zrotation Xrotation Yrotation
                  End Site
                  {
                    OFFSET 2.48547 -0.328903 0.83742
                  }
                }
              }
              JOINT lRing1
              {
                OFFSET 8.82822 0.546677 1.51678
                CHANNELS 3 Zrotation Xrotation Yrotation
                JOINT lRing2
                {
                  OFFSET 2.60934 -0.819778 -0.0198488
                  CHANNELS 3 Zrotation Xrotation Yrotation
                  End Site
                  {
                    OFFSET 2.33842 -0.294052 0.168128
                  }
                }
              }
              JOINT lPinky1
              {
                OFFSET 8.27202 -0.0477905 -0.4584
                CHANNELS 3 Zrotation Xrotation Yrotation
                JOINT lPinky2
                {
                  OFFSET 1.82734 -0.647385 -0.700984
                  CHANNELS 3 Zrotation Xrotation Yrotation
                  End Site
                  {
                    OFFSET 1.69225 -0.51767 -0.607171
                  }
                }
              }
            }
          }
        }
      }
    }
  }
  JOINT rButtock
  {
    OFFSET -8.77824 4.35084 1.2192
    CHANNELS 3 Zrotation Xrotation Yrotation
    JOINT rThigh
    {
      OFFSET 0 -1.70687 -2.19456
      CHANNELS 3 Zrotation Xrotation Yrotation
      JOINT rShin
      {
        OFFSET 0 -36.8199 0.73152
        CHANNELS 3 Zrotation Xrotation Yrotation
        JOINT rFoot
        {
          OFFSET 0.73152 -45.1104 -5.12064
          CHANNELS 3 Zrotation Xrotation Yrotation
          End Site
          {
            OFFSET -1.1221 -3.69964 12.103
          }
        }
      }
    }
  }
  JOINT lButtock
  {
    OFFSET 8.77824 4.35084 1.2192
    CHANNELS 3 Zrotation Xrotation Yrotation
    JOINT lThigh
    {
      OFFSET 0 -1.70687 -2.19456
      CHANNELS 3 Zrotation Xrotation Yrotation
      JOINT lShin
      {
        OFFSET 0 -36.8199 0.73152
        CHANNELS 3 Zrotation Xrotation Yrotation
        JOINT lFoot
        {
          OFFSET -0.73152 -45.1104 -5.12064
          CHANNELS 3 Zrotation Xrotation Yrotation
          End Site
          {
            OFFSET 1.1221 -3.69964 12.103
          }
        }
      }
    }
  }
}
MOTION
Frames:	7
Frame Time:	0.03333
4.5756 48.9074 -5.6079 -173.365595 -59.810277 179.414905 -0.468639 15.055433 -180.0 -5.807945 8.945163 171.177221 -14.834839 33.984388 -86.003098 47.218688 11.915615 28.277074 0.405624 -0.035456 -9.991201 -1.214418 0.109862 -10.337967 0.089905 -44.620495 -12.919438 35.326908 -2.87606 -11.01796 17.088904 37.701159 107.255956 -13.48303 21.051545 3.384474 0.472442 -0.542875 -1.074338 -128.756318 -21.478583 99.765826 -77.29023 46.074691 64.365787 173.56134 -21.358222 107.364366 0.163615 -0.261606 1.545641 -166.270336 -4.876342 152.822423 -147.10713 -16.34014 -168.450396 11.07128 18.148834 -15.369324 -155.03153 10.779293 -146.32444 -21.02166 -44.228742 -11.899838 8.281329 32.360703 -8.888025 -67.92351 0.039286 -58.567363 176.644601 -19.572265 -37.607455 -175.160401 -13.954169 -142.514094 167.170318 -8.725854 -85.774933 -29.2626 -47.450524 -35.662534 -152.543858 -68.133265 -95.988869 -65.815145 -55.60876 -13.408276 142.889218 36.672174 -130.961039 172.987346 -10.757117 -151.999413 144.123745 0.052592 -176.414209 60.870565 -83.291029 88.999357 0.95466 -2.761227 2.591912 145.986541 40.322542 158.129507 162.275118 71.6359 18.611969 159.060798 -3.299516 -91.385204 -93.497201 -10.62838 175.248032 -154.432747 -80.684802 127.141824 1.308834 -3.342311 0.0 65.281096 -40.648857 73.307021 123.433786 65.30208 103.554415 144.074438 -19.962869 -175.185212
4.433800000000001 48.546099999999996 -5.4449 -173.969138 -59.531651 179.976896 -0.482625 14.911671 -178.125113 -5.275721 8.881853 169.868876 9.379706 30.518063 90.839592 -43.312952 9.670783 -144.753618 0.776233 -0.082504 -12.133995 0.034024 -0.002945 -9.894391 -25.326808 60.235167 26.013904 98.311532 -51.436835 78.977225 9.314273 4.619297 114.995628 -10.971987 15.134894 2.062851 82.979343 -51.15611 33.449178 -9.878469 -14.950409 -14.190976 -156.972938 -29.538671 125.541409 -65.988383 68.440607 48.102398 -160.902737 -6.821092 142.525275 -167.387914 -20.45569 136.459997 -146.701962 -10.802116 -169.789137 -142.783048 -38.933741 -159.93518 -106.082182 -52.581597 -93.467291 -165.873435 26.209723 -138.111674 -3.469645 -44.771897 9.034163 102.53969 11.853095 167.507842 10.463572 74.028631 128.299843 -174.602311 -16.477799 -142.22455 -3.794234 -0.758427 -3.665985 -4.897578 -66.777215 46.997348 48.031417 37.690577 -37.574222 68.98759 52.045459 -45.65846 -176.503617 -66.457555 -142.710583 1.575571 44.439527 -5.377467 143.096846 9.617438 -172.648827 -16.36687 0.460576 4.64514 -7.685019 19.923563 -5.113175 16.401745 -41.997036 15.122188 77.10865 32.984562 44.355864 -145.320472 -9.010601 -180.0 -99.147796 -55.115047 175.604522 -29.347721 22.469093 -70.891866 -13.214401 -2.630675 -12.354899 83.096841 -28.749684 -16.057316 -94.01284 23.161311 80.889351 -81.678926 -40.403605 -13.348069
4.3043 48.219899999999996 -5.2555 -174.81823 -59.35965 -179.04971 -0.620225 19.580047 0.18351 5.473752 -13.330581 -7.483976 -12.830945 34.554976 -92.805586 47.389173 14.395543 32.363575 2.338479 -0.262994 -12.831711 0.134712 -0.014037 -11.897732 -59.096685 -82.293642 -79.997504 16.296724 -2.604948 -24.38078 -8.708957 66.006928 125.656633 -6.82523 3.729782 0.684208 -171.620695 -9.301231 90.277087 -25.374602 -29.310496 -4.971906 -0.694656 2.646066 -0.536214 12.649694 2.376437 7.862119 -0.341292 1.699247 0.186817 69.386074 -83.106736 44.669051 -130.779054 70.153747 150.912746 -170.782403 30.460125 175.465428 -5.062375 30.146809 11.424929 35.987654 63.612251 9.405806 159.399416 -30.743584 -166.715452 17.132859 22.69322 46.987156 -6.90503 -23.528487 140.173068 -176.853837 -9.487359 -142.43653 80.217147 35.425933 -45.681468 129.278 -30.837757 -93.332448 1.72045 1.399669 -2.423797 27.614723 32.393994 -18.95787 -12.972188 -52.386733 5.61064 0.81053 30.443149 -12.49793 -0.863884 -15.809508 -0.400637 159.021812 -26.586657 -179.385444 -11.167469 28.581815 -6.953177 2.216206 82.189759 -36.712284 113.394408 60.59407 47.639654 177.082181 0.014613 89.850692 92.753051 5.820116 -145.587521 27.460688 0.064961 69.734256 104.965125 67.479112 57.243583 -113.576403 -6.605678 180.0 -123.444507 -55.319918 -153.954191 31.01981 66.5196 -160.766363
4.1934 47.79 -5.0591 -175.454585 -59.438496 -178.224645 -0.522391 19.619841 -3.857752 6.155848 -12.976037 -3.182801 -8.223613 23.849761 -27.409067 26.609473 -27.920358 -22.280518 3.470757 -0.403759 -13.267011 0.338609 -0.038156 -12.858378 -79.722107 72.818285 82.236367 -11.128127 10.271044 42.611045 -143.779497 -11.787675 -50.679606 5.845286 -33.819737 1.587393 -77.907899 38.530382 42.557004 -129.228751 -10.927451 75.999313 4.337288 -3.319226 -1.221934 175.56514 -37.264186 97.194417 -35.01095 52.094288 29.421533 -32.650996 63.094164 26.52709 -145.914138 4.945301 -173.586656 16.003997 25.31694 -17.843217 -146.964085 -20.690785 -131.135087 -163.993818 11.603759 -140.489584 10.922716 34.582232 -11.947317 95.044531 2.660839 -115.935904 19.794902 43.468862 126.313443 -169.443912 -30.787383 -140.579469 -83.398988 -46.61802 -32.922654 164.668714 -9.567549 -117.074351 0.390072 0.274994 -1.662888 0.330176 7.776181 -6.274993 153.818229 20.00839 -139.689252 164.688653 23.236172 -145.903024 143.863693 13.19045 -171.580532 147.577621 -48.024951 174.262956 -13.135261 30.561835 -6.179721 90.327934 -59.98516 84.483159 110.219196 59.697708 49.446885 179.308463 -1.822013 180.0 156.298548 -87.92312 -35.835019 148.658606 -2.03173 -11.476674 -27.495955 0.785858 -25.052168 97.415357 -19.814204 -165.071657 119.031783 -47.894651 138.032596 -127.897028 12.678988 -158.384001
4.0886 47.3196 -4.8936 -175.654866 -59.505011 -177.880815 -0.727353 19.8022 -0.0 5.39436 -13.565758 -7.052299 -12.351585 31.748894 -77.122203 46.436888 2.907251 20.608301 3.468321 -0.408856 -13.442343 -0.203833 0.021544 -12.067012 -16.630845 53.798198 17.005482 6.60171 17.041556 43.286177 -128.450969 -4.948773 -27.200507 29.69728 -64.853708 18.248335 96.788936 -50.504952 42.608319 -111.306687 28.104242 79.626728 170.298906 -66.444056 106.851826 -56.562642 58.045309 49.462861 -34.505538 52.157293 29.544661 159.849135 -82.806667 129.525636 -137.148528 63.121318 160.577155 -164.453176 -25.104641 -172.748563 -11.630708 88.161603 35.28358 8.839146 0.275133 15.381132 -2.678992 -26.865947 4.531309 95.918781 -10.438732 -175.841335 17.855105 50.892472 125.788673 -171.055925 -26.49119 -141.290505 101.579373 32.483396 -59.411382 -26.637706 -22.612493 -19.635365 -63.279303 -69.172728 -18.037997 -20.23685 4.31105 0.450643 167.141869 -27.255016 -148.032962 34.674871 68.109722 -27.370462 0.530195 -14.872414 0.220846 155.46651 -38.94936 179.350596 24.662297 -36.855331 28.020331 10.773842 -46.276817 14.931568 2.791512 0.027144 -3.59563 -77.896527 -63.626166 100.875393 97.476813 -67.059986 -64.159092 157.099528 -16.675372 14.78217 -25.313738 0.169533 -23.205939 95.818717 -22.206641 -180.0 102.513529 -33.859261 -140.205543 114.949887 53.782719 -14.401969
3.9813 46.8833 -4.7761 -175.664756 -59.421931 -177.772454 -0.635482 19.964645 -4.931818 6.394698 -13.296407 -2.107386 10.884592 34.410674 114.711034 -41.696761 27.500211 -163.63249 2.596229 -0.295435 -12.981815 -1.265372 0.119856 -10.821391 -0.565522 -45.716526 -15.040589 39.170933 12.72411 -10.20815 175.980011 2.394909 28.46129 -177.685509 2.479753 145.027387 -170.933029 -9.744731 88.807717 1.230224 -56.304144 -0.345252 -43.157407 39.518782 38.96852 120.641739 -62.419457 72.356945 -157.981526 -5.1454 143.368785 -162.142052 -24.182621 140.124908 -141.463422 -18.7377 -166.227328 -169.297185 65.013371 -167.146529 -10.92721 18.723348 8.122579 18.197118 -4.336595 -3.097935 156.059991 -0.988099 -160.890192 99.991643 -60.664439 52.776139 155.701984 78.26224 -16.451518 -174.741664 -15.713018 -142.43231 6.555599 6.460339 -5.947713 138.077497 -74.041469 -144.487545 152.851811 -21.970059 -119.952681 -8.633153 21.309225 11.070157 160.552753 -7.65164 -145.739649 30.879641 64.358655 -21.873264 146.372462 -1.478895 -177.340592 -11.138227 29.708135 2.331259 -20.506841 43.16255 -5.480958 153.367925 -11.991638 141.121545 -129.590718 71.783146 -32.055575 140.335871 -14.890585 -93.92432 -101.110233 -38.455759 14.761607 176.661123 -19.050316 -77.728006 0.737777 -4.297098 -0.890721 67.730865 -41.505459 59.380985 123.972404 69.345562 -64.193611 111.932615 -57.381379 25.023636
3.8774999999999995 46.4932 -4.7161 -175.531742 -59.37171 -177.775832 -0.936364 15.271108 -176.449144 -4.736811 9.52592 168.843191 9.35355 37.434786 134.459671 -35.521711 39.526512 179.307995 1.348194 -0.144084 -12.199725 -2.470867 0.213793 -9.888932 -156.231325 -39.454533 174.039167 -94.929198 -69.086546 -87.172616 -7.086033 28.900483 -144.526019 175.791573 -18.632308 145.284002 -167.13316 -6.523267 88.421884 10.215987 -58.904584 7.141967 -124.960381 14.007493 110.048866 -62.095797 60.719965 42.306063 -163.160856 -24.445615 145.463479 5.060962 12.088445 10.161692 0.164197 0.894576 -5.433351 14.457701 -17.227723 7.959931 -6.349502 35.941823 12.894469 -141.223339 60.165229 -154.208278 131.279937 54.544052 -134.063638 66.241253 5.249227 -36.004309 68.838063 48.156298 86.5361 -151.245175 -58.222449 -128.715157 -74.041453 -43.610766 -27.861475 79.060141 37.819788 -30.104757 -11.460838 -16.073846 2.153479 166.516269 -16.042086 -103.016929 88.959516 62.814917 -82.228111 -2.03714 -26.438598 1.972569 79.552957 -75.455131 95.814338 -12.666193 0.87976 4.238454 -5.361372 -0.116064 4.712338 151.237789 2.527128 154.13964 162.784861 73.93348 17.871151 156.845401 -7.828371 -89.796108 -99.813572 -21.030893 19.389022 178.840926 -62.116242 -89.247609 -9.966776 -1.801995 -9.534313 83.422515 -35.765838 162.644759 106.000497 -11.096187 -177.578653 -169.821242 50.4638 -96.869281
